<mxfile host="app.diagrams.net" agent="Mozilla/5.0 (Windows NT 10.0; Win64; x64) AppleWebKit/537.36 (KHTML, like Gecko) Chrome/135.0.0.0 Safari/537.36 Edg/135.0.0.0" version="26.2.13">
  <diagram name="Página-1" id="rKfrx5VrS1NlMb8q1nNa">
    <mxGraphModel dx="1332" dy="742" grid="1" gridSize="10" guides="1" tooltips="1" connect="1" arrows="1" fold="1" page="1" pageScale="1" pageWidth="827" pageHeight="1169" math="0" shadow="0">
      <root>
        <mxCell id="0" />
        <mxCell id="1" parent="0" />
        <mxCell id="G4llAX9CjpD3TjqCnzWP-1" value="&lt;font style=&quot;font-size: 15px;&quot;&gt;Cliente&lt;/font&gt;" style="rounded=0;whiteSpace=wrap;html=1;" vertex="1" parent="1">
          <mxGeometry x="120" y="140" width="120" height="30" as="geometry" />
        </mxCell>
        <mxCell id="G4llAX9CjpD3TjqCnzWP-2" value="CPF" style="ellipse;whiteSpace=wrap;html=1;" vertex="1" parent="1">
          <mxGeometry x="50" y="30" width="60" height="40" as="geometry" />
        </mxCell>
        <mxCell id="G4llAX9CjpD3TjqCnzWP-4" value="" style="endArrow=none;html=1;rounded=0;exitX=0;exitY=0.5;exitDx=0;exitDy=0;entryX=0.5;entryY=1;entryDx=0;entryDy=0;" edge="1" parent="1" source="G4llAX9CjpD3TjqCnzWP-1" target="G4llAX9CjpD3TjqCnzWP-2">
          <mxGeometry width="50" height="50" relative="1" as="geometry">
            <mxPoint x="430" y="290" as="sourcePoint" />
            <mxPoint x="480" y="240" as="targetPoint" />
          </mxGeometry>
        </mxCell>
        <mxCell id="G4llAX9CjpD3TjqCnzWP-5" value="Email" style="ellipse;whiteSpace=wrap;html=1;" vertex="1" parent="1">
          <mxGeometry x="160" y="30" width="60" height="40" as="geometry" />
        </mxCell>
        <mxCell id="G4llAX9CjpD3TjqCnzWP-6" value="Nome" style="ellipse;whiteSpace=wrap;html=1;" vertex="1" parent="1">
          <mxGeometry x="110" y="80" width="60" height="40" as="geometry" />
        </mxCell>
        <mxCell id="G4llAX9CjpD3TjqCnzWP-7" value="" style="endArrow=none;html=1;rounded=0;exitX=0.25;exitY=0;exitDx=0;exitDy=0;entryX=0.5;entryY=1;entryDx=0;entryDy=0;" edge="1" parent="1" source="G4llAX9CjpD3TjqCnzWP-1" target="G4llAX9CjpD3TjqCnzWP-6">
          <mxGeometry width="50" height="50" relative="1" as="geometry">
            <mxPoint x="430" y="290" as="sourcePoint" />
            <mxPoint x="480" y="240" as="targetPoint" />
          </mxGeometry>
        </mxCell>
        <mxCell id="G4llAX9CjpD3TjqCnzWP-9" value="" style="endArrow=none;html=1;rounded=0;exitX=0.5;exitY=0;exitDx=0;exitDy=0;entryX=0.5;entryY=1;entryDx=0;entryDy=0;" edge="1" parent="1" source="G4llAX9CjpD3TjqCnzWP-1" target="G4llAX9CjpD3TjqCnzWP-5">
          <mxGeometry width="50" height="50" relative="1" as="geometry">
            <mxPoint x="430" y="290" as="sourcePoint" />
            <mxPoint x="480" y="240" as="targetPoint" />
          </mxGeometry>
        </mxCell>
        <mxCell id="G4llAX9CjpD3TjqCnzWP-10" value="Gênero" style="ellipse;whiteSpace=wrap;html=1;" vertex="1" parent="1">
          <mxGeometry x="200" y="80" width="60" height="40" as="geometry" />
        </mxCell>
        <mxCell id="G4llAX9CjpD3TjqCnzWP-11" value="" style="endArrow=none;html=1;rounded=0;exitX=0.75;exitY=0;exitDx=0;exitDy=0;entryX=0.5;entryY=1;entryDx=0;entryDy=0;" edge="1" parent="1" source="G4llAX9CjpD3TjqCnzWP-1" target="G4llAX9CjpD3TjqCnzWP-10">
          <mxGeometry width="50" height="50" relative="1" as="geometry">
            <mxPoint x="430" y="290" as="sourcePoint" />
            <mxPoint x="480" y="240" as="targetPoint" />
          </mxGeometry>
        </mxCell>
        <mxCell id="G4llAX9CjpD3TjqCnzWP-12" value="Salário" style="ellipse;whiteSpace=wrap;html=1;" vertex="1" parent="1">
          <mxGeometry x="260" y="30" width="60" height="40" as="geometry" />
        </mxCell>
        <mxCell id="G4llAX9CjpD3TjqCnzWP-13" value="" style="endArrow=none;html=1;rounded=0;exitX=1;exitY=0.5;exitDx=0;exitDy=0;entryX=0.5;entryY=1;entryDx=0;entryDy=0;" edge="1" parent="1" source="G4llAX9CjpD3TjqCnzWP-1" target="G4llAX9CjpD3TjqCnzWP-12">
          <mxGeometry width="50" height="50" relative="1" as="geometry">
            <mxPoint x="430" y="290" as="sourcePoint" />
            <mxPoint x="480" y="240" as="targetPoint" />
            <Array as="points" />
          </mxGeometry>
        </mxCell>
        <mxCell id="G4llAX9CjpD3TjqCnzWP-14" value="Aniversário" style="ellipse;whiteSpace=wrap;html=1;" vertex="1" parent="1">
          <mxGeometry x="310" y="95" width="70" height="40" as="geometry" />
        </mxCell>
        <mxCell id="G4llAX9CjpD3TjqCnzWP-15" value="" style="endArrow=none;html=1;rounded=0;exitX=1;exitY=0.5;exitDx=0;exitDy=0;entryX=0;entryY=0.5;entryDx=0;entryDy=0;" edge="1" parent="1" source="G4llAX9CjpD3TjqCnzWP-1" target="G4llAX9CjpD3TjqCnzWP-14">
          <mxGeometry width="50" height="50" relative="1" as="geometry">
            <mxPoint x="430" y="290" as="sourcePoint" />
            <mxPoint x="480" y="240" as="targetPoint" />
          </mxGeometry>
        </mxCell>
        <mxCell id="G4llAX9CjpD3TjqCnzWP-16" value="Bairro" style="ellipse;whiteSpace=wrap;html=1;" vertex="1" parent="1">
          <mxGeometry x="20" y="130" width="60" height="40" as="geometry" />
        </mxCell>
        <mxCell id="G4llAX9CjpD3TjqCnzWP-17" value="Cidade" style="ellipse;whiteSpace=wrap;html=1;" vertex="1" parent="1">
          <mxGeometry x="70" y="190" width="60" height="40" as="geometry" />
        </mxCell>
        <mxCell id="G4llAX9CjpD3TjqCnzWP-18" value="UF" style="ellipse;whiteSpace=wrap;html=1;" vertex="1" parent="1">
          <mxGeometry x="150" y="190" width="60" height="40" as="geometry" />
        </mxCell>
        <mxCell id="G4llAX9CjpD3TjqCnzWP-19" value="" style="endArrow=none;html=1;rounded=0;exitX=1;exitY=0.5;exitDx=0;exitDy=0;" edge="1" parent="1" source="G4llAX9CjpD3TjqCnzWP-16">
          <mxGeometry width="50" height="50" relative="1" as="geometry">
            <mxPoint x="430" y="290" as="sourcePoint" />
            <mxPoint x="120" y="160" as="targetPoint" />
          </mxGeometry>
        </mxCell>
        <mxCell id="G4llAX9CjpD3TjqCnzWP-20" value="" style="endArrow=none;html=1;rounded=0;exitX=1;exitY=0;exitDx=0;exitDy=0;entryX=0.2;entryY=1.067;entryDx=0;entryDy=0;entryPerimeter=0;" edge="1" parent="1" source="G4llAX9CjpD3TjqCnzWP-17" target="G4llAX9CjpD3TjqCnzWP-1">
          <mxGeometry width="50" height="50" relative="1" as="geometry">
            <mxPoint x="430" y="290" as="sourcePoint" />
            <mxPoint x="480" y="240" as="targetPoint" />
          </mxGeometry>
        </mxCell>
        <mxCell id="G4llAX9CjpD3TjqCnzWP-21" value="" style="endArrow=none;html=1;rounded=0;exitX=0.5;exitY=0;exitDx=0;exitDy=0;entryX=0.5;entryY=1;entryDx=0;entryDy=0;" edge="1" parent="1" source="G4llAX9CjpD3TjqCnzWP-18" target="G4llAX9CjpD3TjqCnzWP-1">
          <mxGeometry width="50" height="50" relative="1" as="geometry">
            <mxPoint x="430" y="290" as="sourcePoint" />
            <mxPoint x="480" y="240" as="targetPoint" />
          </mxGeometry>
        </mxCell>
        <mxCell id="G4llAX9CjpD3TjqCnzWP-22" value="&lt;font style=&quot;font-size: 15px;&quot;&gt;Venda&lt;/font&gt;" style="rounded=0;whiteSpace=wrap;html=1;" vertex="1" parent="1">
          <mxGeometry x="600" y="135" width="120" height="30" as="geometry" />
        </mxCell>
        <mxCell id="G4llAX9CjpD3TjqCnzWP-24" value="Valor" style="ellipse;whiteSpace=wrap;html=1;" vertex="1" parent="1">
          <mxGeometry x="720" y="55" width="60" height="40" as="geometry" />
        </mxCell>
        <mxCell id="G4llAX9CjpD3TjqCnzWP-25" value="Data/Hora" style="ellipse;whiteSpace=wrap;html=1;" vertex="1" parent="1">
          <mxGeometry x="620" y="55" width="70" height="40" as="geometry" />
        </mxCell>
        <mxCell id="G4llAX9CjpD3TjqCnzWP-27" value="&lt;font style=&quot;font-size: 15px;&quot;&gt;Produto&lt;/font&gt;" style="rounded=0;whiteSpace=wrap;html=1;" vertex="1" parent="1">
          <mxGeometry x="70" y="360" width="120" height="30" as="geometry" />
        </mxCell>
        <mxCell id="G4llAX9CjpD3TjqCnzWP-29" value="Cód. Barras" style="ellipse;whiteSpace=wrap;html=1;" vertex="1" parent="1">
          <mxGeometry x="10" y="290" width="80" height="40" as="geometry" />
        </mxCell>
        <mxCell id="G4llAX9CjpD3TjqCnzWP-30" value="" style="endArrow=none;html=1;rounded=0;exitX=0.25;exitY=0;exitDx=0;exitDy=0;entryX=0.5;entryY=1;entryDx=0;entryDy=0;" edge="1" parent="1" source="G4llAX9CjpD3TjqCnzWP-27" target="G4llAX9CjpD3TjqCnzWP-29">
          <mxGeometry width="50" height="50" relative="1" as="geometry">
            <mxPoint x="390" y="270" as="sourcePoint" />
            <mxPoint x="440" y="220" as="targetPoint" />
          </mxGeometry>
        </mxCell>
        <mxCell id="G4llAX9CjpD3TjqCnzWP-31" value="Descrição" style="ellipse;whiteSpace=wrap;html=1;" vertex="1" parent="1">
          <mxGeometry x="20" y="420" width="70" height="40" as="geometry" />
        </mxCell>
        <mxCell id="G4llAX9CjpD3TjqCnzWP-32" value="" style="endArrow=none;html=1;rounded=0;exitX=0.5;exitY=0;exitDx=0;exitDy=0;entryX=0.25;entryY=1;entryDx=0;entryDy=0;" edge="1" parent="1" source="G4llAX9CjpD3TjqCnzWP-31" target="G4llAX9CjpD3TjqCnzWP-27">
          <mxGeometry width="50" height="50" relative="1" as="geometry">
            <mxPoint x="390" y="270" as="sourcePoint" />
            <mxPoint x="440" y="220" as="targetPoint" />
          </mxGeometry>
        </mxCell>
        <mxCell id="G4llAX9CjpD3TjqCnzWP-33" value="Cód. Barras" style="ellipse;whiteSpace=wrap;html=1;" vertex="1" parent="1">
          <mxGeometry x="520" y="55" width="80" height="40" as="geometry" />
        </mxCell>
        <mxCell id="G4llAX9CjpD3TjqCnzWP-34" value="" style="endArrow=none;html=1;rounded=0;entryX=0.5;entryY=1;entryDx=0;entryDy=0;exitX=0;exitY=0;exitDx=0;exitDy=0;" edge="1" parent="1" source="G4llAX9CjpD3TjqCnzWP-22" target="G4llAX9CjpD3TjqCnzWP-33">
          <mxGeometry width="50" height="50" relative="1" as="geometry">
            <mxPoint x="490" y="265" as="sourcePoint" />
            <mxPoint x="540" y="215" as="targetPoint" />
          </mxGeometry>
        </mxCell>
        <mxCell id="G4llAX9CjpD3TjqCnzWP-35" value="" style="endArrow=none;html=1;rounded=0;entryX=0.5;entryY=1;entryDx=0;entryDy=0;exitX=0.5;exitY=0;exitDx=0;exitDy=0;" edge="1" parent="1" source="G4llAX9CjpD3TjqCnzWP-22" target="G4llAX9CjpD3TjqCnzWP-25">
          <mxGeometry width="50" height="50" relative="1" as="geometry">
            <mxPoint x="490" y="265" as="sourcePoint" />
            <mxPoint x="540" y="215" as="targetPoint" />
          </mxGeometry>
        </mxCell>
        <mxCell id="G4llAX9CjpD3TjqCnzWP-36" value="" style="endArrow=none;html=1;rounded=0;entryX=0.5;entryY=1;entryDx=0;entryDy=0;exitX=0.75;exitY=0;exitDx=0;exitDy=0;" edge="1" parent="1" source="G4llAX9CjpD3TjqCnzWP-22" target="G4llAX9CjpD3TjqCnzWP-24">
          <mxGeometry width="50" height="50" relative="1" as="geometry">
            <mxPoint x="490" y="265" as="sourcePoint" />
            <mxPoint x="540" y="215" as="targetPoint" />
          </mxGeometry>
        </mxCell>
        <mxCell id="G4llAX9CjpD3TjqCnzWP-37" value="&lt;font style=&quot;font-size: 15px;&quot;&gt;Vendedor&lt;/font&gt;" style="rounded=0;whiteSpace=wrap;html=1;" vertex="1" parent="1">
          <mxGeometry x="575" y="530" width="120" height="30" as="geometry" />
        </mxCell>
        <mxCell id="G4llAX9CjpD3TjqCnzWP-38" value="CPF" style="ellipse;whiteSpace=wrap;html=1;" vertex="1" parent="1">
          <mxGeometry x="540" y="595" width="60" height="30" as="geometry" />
        </mxCell>
        <mxCell id="G4llAX9CjpD3TjqCnzWP-39" value="Nome" style="ellipse;whiteSpace=wrap;html=1;" vertex="1" parent="1">
          <mxGeometry x="515" y="470" width="60" height="40" as="geometry" />
        </mxCell>
        <mxCell id="G4llAX9CjpD3TjqCnzWP-40" value="Gênero" style="ellipse;whiteSpace=wrap;html=1;" vertex="1" parent="1">
          <mxGeometry x="685" y="460" width="60" height="40" as="geometry" />
        </mxCell>
        <mxCell id="G4llAX9CjpD3TjqCnzWP-41" value="" style="endArrow=none;html=1;rounded=0;exitX=0.5;exitY=0;exitDx=0;exitDy=0;entryX=-0.008;entryY=1.145;entryDx=0;entryDy=0;entryPerimeter=0;" edge="1" parent="1" source="G4llAX9CjpD3TjqCnzWP-38" target="G4llAX9CjpD3TjqCnzWP-37">
          <mxGeometry width="50" height="50" relative="1" as="geometry">
            <mxPoint x="465" y="450" as="sourcePoint" />
            <mxPoint x="575" y="560" as="targetPoint" />
          </mxGeometry>
        </mxCell>
        <mxCell id="G4llAX9CjpD3TjqCnzWP-42" value="" style="endArrow=none;html=1;rounded=0;exitX=0;exitY=0;exitDx=0;exitDy=0;entryX=0.5;entryY=1;entryDx=0;entryDy=0;" edge="1" parent="1" source="G4llAX9CjpD3TjqCnzWP-37" target="G4llAX9CjpD3TjqCnzWP-39">
          <mxGeometry width="50" height="50" relative="1" as="geometry">
            <mxPoint x="465" y="450" as="sourcePoint" />
            <mxPoint x="515" y="400" as="targetPoint" />
          </mxGeometry>
        </mxCell>
        <mxCell id="G4llAX9CjpD3TjqCnzWP-43" value="" style="endArrow=none;html=1;rounded=0;exitX=1;exitY=0;exitDx=0;exitDy=0;entryX=0.5;entryY=1;entryDx=0;entryDy=0;" edge="1" parent="1" source="G4llAX9CjpD3TjqCnzWP-37" target="G4llAX9CjpD3TjqCnzWP-40">
          <mxGeometry width="50" height="50" relative="1" as="geometry">
            <mxPoint x="465" y="450" as="sourcePoint" />
            <mxPoint x="515" y="400" as="targetPoint" />
          </mxGeometry>
        </mxCell>
        <mxCell id="G4llAX9CjpD3TjqCnzWP-44" value="Email" style="ellipse;whiteSpace=wrap;html=1;" vertex="1" parent="1">
          <mxGeometry x="745" y="520" width="60" height="40" as="geometry" />
        </mxCell>
        <mxCell id="G4llAX9CjpD3TjqCnzWP-45" value="" style="endArrow=none;html=1;rounded=0;exitX=1;exitY=0.5;exitDx=0;exitDy=0;entryX=0;entryY=0.5;entryDx=0;entryDy=0;" edge="1" parent="1" source="G4llAX9CjpD3TjqCnzWP-37" target="G4llAX9CjpD3TjqCnzWP-44">
          <mxGeometry width="50" height="50" relative="1" as="geometry">
            <mxPoint x="465" y="450" as="sourcePoint" />
            <mxPoint x="515" y="400" as="targetPoint" />
          </mxGeometry>
        </mxCell>
        <mxCell id="G4llAX9CjpD3TjqCnzWP-46" value="Registro" style="ellipse;whiteSpace=wrap;html=1;" vertex="1" parent="1">
          <mxGeometry x="615" y="590" width="60" height="40" as="geometry" />
        </mxCell>
        <mxCell id="G4llAX9CjpD3TjqCnzWP-47" value="" style="endArrow=none;html=1;rounded=0;exitX=0.5;exitY=0;exitDx=0;exitDy=0;entryX=0.5;entryY=1;entryDx=0;entryDy=0;" edge="1" parent="1" source="G4llAX9CjpD3TjqCnzWP-46" target="G4llAX9CjpD3TjqCnzWP-37">
          <mxGeometry width="50" height="50" relative="1" as="geometry">
            <mxPoint x="465" y="450" as="sourcePoint" />
            <mxPoint x="515" y="400" as="targetPoint" />
          </mxGeometry>
        </mxCell>
        <mxCell id="G4llAX9CjpD3TjqCnzWP-48" value="Registro" style="ellipse;whiteSpace=wrap;html=1;" vertex="1" parent="1">
          <mxGeometry x="500" y="130" width="60" height="40" as="geometry" />
        </mxCell>
        <mxCell id="G4llAX9CjpD3TjqCnzWP-49" value="" style="endArrow=none;html=1;rounded=0;entryX=1;entryY=0.5;entryDx=0;entryDy=0;exitX=0;exitY=0.5;exitDx=0;exitDy=0;" edge="1" parent="1" source="G4llAX9CjpD3TjqCnzWP-22" target="G4llAX9CjpD3TjqCnzWP-48">
          <mxGeometry width="50" height="50" relative="1" as="geometry">
            <mxPoint x="490" y="265" as="sourcePoint" />
            <mxPoint x="540" y="215" as="targetPoint" />
          </mxGeometry>
        </mxCell>
        <mxCell id="G4llAX9CjpD3TjqCnzWP-50" value="&lt;font style=&quot;font-size: 15px;&quot;&gt;Fornecedor&lt;/font&gt;" style="rounded=0;whiteSpace=wrap;html=1;" vertex="1" parent="1">
          <mxGeometry x="180" y="645" width="120" height="30" as="geometry" />
        </mxCell>
        <mxCell id="G4llAX9CjpD3TjqCnzWP-52" value="&lt;u&gt;Registro&lt;/u&gt;" style="ellipse;whiteSpace=wrap;html=1;" vertex="1" parent="1">
          <mxGeometry x="210" y="705" width="60" height="40" as="geometry" />
        </mxCell>
        <mxCell id="G4llAX9CjpD3TjqCnzWP-53" value="Nome" style="ellipse;whiteSpace=wrap;html=1;" vertex="1" parent="1">
          <mxGeometry x="120" y="700" width="60" height="35" as="geometry" />
        </mxCell>
        <mxCell id="G4llAX9CjpD3TjqCnzWP-54" value="Razão" style="ellipse;whiteSpace=wrap;html=1;" vertex="1" parent="1">
          <mxGeometry x="300" y="700" width="60" height="35" as="geometry" />
        </mxCell>
        <mxCell id="G4llAX9CjpD3TjqCnzWP-55" value="" style="endArrow=none;html=1;rounded=0;exitX=0.5;exitY=0;exitDx=0;exitDy=0;entryX=0;entryY=1;entryDx=0;entryDy=0;" edge="1" parent="1" source="G4llAX9CjpD3TjqCnzWP-53" target="G4llAX9CjpD3TjqCnzWP-50">
          <mxGeometry width="50" height="50" relative="1" as="geometry">
            <mxPoint x="230" y="795" as="sourcePoint" />
            <mxPoint x="280" y="745" as="targetPoint" />
          </mxGeometry>
        </mxCell>
        <mxCell id="G4llAX9CjpD3TjqCnzWP-56" value="" style="endArrow=none;html=1;rounded=0;exitX=0.5;exitY=0;exitDx=0;exitDy=0;entryX=0.5;entryY=1;entryDx=0;entryDy=0;" edge="1" parent="1" source="G4llAX9CjpD3TjqCnzWP-52" target="G4llAX9CjpD3TjqCnzWP-50">
          <mxGeometry width="50" height="50" relative="1" as="geometry">
            <mxPoint x="230" y="795" as="sourcePoint" />
            <mxPoint x="280" y="745" as="targetPoint" />
          </mxGeometry>
        </mxCell>
        <mxCell id="G4llAX9CjpD3TjqCnzWP-57" value="Cidade" style="ellipse;whiteSpace=wrap;html=1;" vertex="1" parent="1">
          <mxGeometry x="335" y="640" width="60" height="40" as="geometry" />
        </mxCell>
        <mxCell id="G4llAX9CjpD3TjqCnzWP-58" value="UF" style="ellipse;whiteSpace=wrap;html=1;" vertex="1" parent="1">
          <mxGeometry x="70" y="640" width="60" height="40" as="geometry" />
        </mxCell>
        <mxCell id="G4llAX9CjpD3TjqCnzWP-60" value="" style="endArrow=none;html=1;rounded=0;exitX=0;exitY=0.5;exitDx=0;exitDy=0;entryX=1;entryY=0.5;entryDx=0;entryDy=0;" edge="1" parent="1" source="G4llAX9CjpD3TjqCnzWP-50" target="G4llAX9CjpD3TjqCnzWP-58">
          <mxGeometry width="50" height="50" relative="1" as="geometry">
            <mxPoint x="230" y="735" as="sourcePoint" />
            <mxPoint x="280" y="685" as="targetPoint" />
          </mxGeometry>
        </mxCell>
        <mxCell id="G4llAX9CjpD3TjqCnzWP-61" value="" style="endArrow=none;html=1;rounded=0;exitX=0.5;exitY=0;exitDx=0;exitDy=0;entryX=1;entryY=1;entryDx=0;entryDy=0;" edge="1" parent="1" source="G4llAX9CjpD3TjqCnzWP-54" target="G4llAX9CjpD3TjqCnzWP-50">
          <mxGeometry width="50" height="50" relative="1" as="geometry">
            <mxPoint x="230" y="735" as="sourcePoint" />
            <mxPoint x="280" y="685" as="targetPoint" />
          </mxGeometry>
        </mxCell>
        <mxCell id="G4llAX9CjpD3TjqCnzWP-62" value="" style="endArrow=none;html=1;rounded=0;entryX=0;entryY=0.5;entryDx=0;entryDy=0;exitX=1;exitY=0.5;exitDx=0;exitDy=0;" edge="1" parent="1" source="G4llAX9CjpD3TjqCnzWP-50" target="G4llAX9CjpD3TjqCnzWP-57">
          <mxGeometry width="50" height="50" relative="1" as="geometry">
            <mxPoint x="230" y="735" as="sourcePoint" />
            <mxPoint x="280" y="685" as="targetPoint" />
          </mxGeometry>
        </mxCell>
        <mxCell id="G4llAX9CjpD3TjqCnzWP-63" value="&lt;u&gt;Registro&lt;/u&gt;" style="ellipse;whiteSpace=wrap;html=1;" vertex="1" parent="1">
          <mxGeometry x="110" y="420" width="60" height="40" as="geometry" />
        </mxCell>
        <mxCell id="G4llAX9CjpD3TjqCnzWP-64" value="" style="endArrow=none;html=1;rounded=0;exitX=0.5;exitY=0;exitDx=0;exitDy=0;entryX=0.547;entryY=1.106;entryDx=0;entryDy=0;entryPerimeter=0;" edge="1" parent="1" source="G4llAX9CjpD3TjqCnzWP-63" target="G4llAX9CjpD3TjqCnzWP-27">
          <mxGeometry width="50" height="50" relative="1" as="geometry">
            <mxPoint x="300" y="520" as="sourcePoint" />
            <mxPoint x="350" y="470" as="targetPoint" />
          </mxGeometry>
        </mxCell>
        <mxCell id="G4llAX9CjpD3TjqCnzWP-65" value="Fornece" style="rhombus;whiteSpace=wrap;html=1;" vertex="1" parent="1">
          <mxGeometry x="160" y="505" width="160" height="50" as="geometry" />
        </mxCell>
        <mxCell id="G4llAX9CjpD3TjqCnzWP-67" value="" style="endArrow=none;html=1;rounded=0;exitX=0.5;exitY=0;exitDx=0;exitDy=0;entryX=0.5;entryY=1;entryDx=0;entryDy=0;" edge="1" parent="1" source="G4llAX9CjpD3TjqCnzWP-50" target="G4llAX9CjpD3TjqCnzWP-65">
          <mxGeometry width="50" height="50" relative="1" as="geometry">
            <mxPoint x="320" y="620" as="sourcePoint" />
            <mxPoint x="240" y="600" as="targetPoint" />
          </mxGeometry>
        </mxCell>
        <mxCell id="G4llAX9CjpD3TjqCnzWP-68" value="" style="endArrow=none;html=1;rounded=0;exitX=0.5;exitY=0;exitDx=0;exitDy=0;entryX=1;entryY=1;entryDx=0;entryDy=0;" edge="1" parent="1" source="G4llAX9CjpD3TjqCnzWP-65" target="G4llAX9CjpD3TjqCnzWP-27">
          <mxGeometry width="50" height="50" relative="1" as="geometry">
            <mxPoint x="290" y="560" as="sourcePoint" />
            <mxPoint x="340" y="510" as="targetPoint" />
          </mxGeometry>
        </mxCell>
        <mxCell id="G4llAX9CjpD3TjqCnzWP-69" value="1" style="text;html=1;align=center;verticalAlign=middle;resizable=0;points=[];autosize=1;strokeColor=none;fillColor=none;" vertex="1" parent="1">
          <mxGeometry x="235" y="548" width="30" height="30" as="geometry" />
        </mxCell>
        <mxCell id="G4llAX9CjpD3TjqCnzWP-70" value="n" style="text;html=1;align=center;verticalAlign=middle;resizable=0;points=[];autosize=1;strokeColor=none;fillColor=none;" vertex="1" parent="1">
          <mxGeometry x="235" y="478" width="30" height="30" as="geometry" />
        </mxCell>
        <mxCell id="G4llAX9CjpD3TjqCnzWP-71" value="Vende" style="rhombus;whiteSpace=wrap;html=1;" vertex="1" parent="1">
          <mxGeometry x="575" y="250" width="160" height="50" as="geometry" />
        </mxCell>
        <mxCell id="G4llAX9CjpD3TjqCnzWP-72" value="" style="endArrow=none;html=1;rounded=0;entryX=0.5;entryY=1;entryDx=0;entryDy=0;exitX=0.5;exitY=0;exitDx=0;exitDy=0;" edge="1" parent="1" source="G4llAX9CjpD3TjqCnzWP-37" target="G4llAX9CjpD3TjqCnzWP-71">
          <mxGeometry width="50" height="50" relative="1" as="geometry">
            <mxPoint x="350" y="380" as="sourcePoint" />
            <mxPoint x="400" y="330" as="targetPoint" />
          </mxGeometry>
        </mxCell>
        <mxCell id="G4llAX9CjpD3TjqCnzWP-74" value="1" style="edgeLabel;html=1;align=center;verticalAlign=middle;resizable=0;points=[];" vertex="1" connectable="0" parent="G4llAX9CjpD3TjqCnzWP-72">
          <mxGeometry x="0.7968" y="-3" relative="1" as="geometry">
            <mxPoint x="5" y="-6" as="offset" />
          </mxGeometry>
        </mxCell>
        <mxCell id="G4llAX9CjpD3TjqCnzWP-73" value="" style="endArrow=none;html=1;rounded=0;entryX=0.5;entryY=1;entryDx=0;entryDy=0;exitX=0.5;exitY=0;exitDx=0;exitDy=0;" edge="1" parent="1" source="G4llAX9CjpD3TjqCnzWP-71" target="G4llAX9CjpD3TjqCnzWP-22">
          <mxGeometry width="50" height="50" relative="1" as="geometry">
            <mxPoint x="350" y="380" as="sourcePoint" />
            <mxPoint x="400" y="330" as="targetPoint" />
          </mxGeometry>
        </mxCell>
        <mxCell id="G4llAX9CjpD3TjqCnzWP-75" value="n" style="edgeLabel;html=1;align=center;verticalAlign=middle;resizable=0;points=[];" vertex="1" connectable="0" parent="G4llAX9CjpD3TjqCnzWP-73">
          <mxGeometry x="-0.8033" y="1" relative="1" as="geometry">
            <mxPoint x="11" y="-2" as="offset" />
          </mxGeometry>
        </mxCell>
        <mxCell id="G4llAX9CjpD3TjqCnzWP-76" value="Registro" style="rhombus;whiteSpace=wrap;html=1;" vertex="1" parent="1">
          <mxGeometry x="340" y="370" width="160" height="50" as="geometry" />
        </mxCell>
        <mxCell id="G4llAX9CjpD3TjqCnzWP-77" value="" style="endArrow=none;html=1;rounded=0;exitX=1;exitY=0;exitDx=0;exitDy=0;entryX=0;entryY=0.5;entryDx=0;entryDy=0;" edge="1" parent="1" source="G4llAX9CjpD3TjqCnzWP-27" target="G4llAX9CjpD3TjqCnzWP-76">
          <mxGeometry width="50" height="50" relative="1" as="geometry">
            <mxPoint x="410" y="350" as="sourcePoint" />
            <mxPoint x="460" y="300" as="targetPoint" />
          </mxGeometry>
        </mxCell>
        <mxCell id="G4llAX9CjpD3TjqCnzWP-78" value="" style="endArrow=none;html=1;rounded=0;entryX=0;entryY=1;entryDx=0;entryDy=0;exitX=1;exitY=0.5;exitDx=0;exitDy=0;" edge="1" parent="1" source="G4llAX9CjpD3TjqCnzWP-76" target="G4llAX9CjpD3TjqCnzWP-22">
          <mxGeometry width="50" height="50" relative="1" as="geometry">
            <mxPoint x="410" y="350" as="sourcePoint" />
            <mxPoint x="460" y="300" as="targetPoint" />
          </mxGeometry>
        </mxCell>
        <mxCell id="G4llAX9CjpD3TjqCnzWP-79" value="Compra" style="rhombus;whiteSpace=wrap;html=1;" vertex="1" parent="1">
          <mxGeometry x="330" y="230" width="160" height="50" as="geometry" />
        </mxCell>
        <mxCell id="G4llAX9CjpD3TjqCnzWP-80" value="" style="endArrow=none;html=1;rounded=0;exitX=1;exitY=1;exitDx=0;exitDy=0;entryX=0;entryY=0.5;entryDx=0;entryDy=0;" edge="1" parent="1" source="G4llAX9CjpD3TjqCnzWP-1" target="G4llAX9CjpD3TjqCnzWP-79">
          <mxGeometry width="50" height="50" relative="1" as="geometry">
            <mxPoint x="410" y="350" as="sourcePoint" />
            <mxPoint x="460" y="300" as="targetPoint" />
          </mxGeometry>
        </mxCell>
        <mxCell id="G4llAX9CjpD3TjqCnzWP-81" value="" style="endArrow=none;html=1;rounded=0;entryX=0;entryY=1;entryDx=0;entryDy=0;exitX=1;exitY=0.5;exitDx=0;exitDy=0;" edge="1" parent="1" source="G4llAX9CjpD3TjqCnzWP-79" target="G4llAX9CjpD3TjqCnzWP-22">
          <mxGeometry width="50" height="50" relative="1" as="geometry">
            <mxPoint x="410" y="350" as="sourcePoint" />
            <mxPoint x="460" y="300" as="targetPoint" />
          </mxGeometry>
        </mxCell>
      </root>
    </mxGraphModel>
  </diagram>
</mxfile>
